# xmcd
#
# Track frame offsets: 
#        150
#        14003
#        25199
#        37822
#        51206
#        63949
#        75892
#        87118
#        103263
#        114286
#        126350
#        139731
#
# Disc length: 2033 seconds
#
# Revision: 0
# Processed by: cddbd v1.5.2PL0 Copyright (c) Steve Scherf et al.
# Submitted via: ExactAudioCopy v1.3
#
DISCID=9107ef0c
DTITLE=Anton Mooslechner JJun. - Leit'n Toni JJun. Harmonika Solo
DYEAR=2019
DGENRE=Volksmusik
TTITLE0=Auf zum Postwirt
TTITLE1=Für mei Schwester
TTITLE2=Ban Sunnawendn
TTITLE3=Steilhang Franzé
TTITLE4=Thaler Walzer
TTITLE5=Lippal Boarischer
TTITLE6=A rassigs Polkerl
TTITLE7=S'hüft jo nix
TTITLE8=Rossbrand Franzé
TTITLE9=Hellbrunner Boarischer
TTITLE10=Annawalzer
TTITLE11=Südsteirische Klänge
EXTD=
EXTT0=
EXTT1=
EXTT2=
EXTT3=
EXTT4=
EXTT5=
EXTT6=
EXTT7=
EXTT8=
EXTT9=
EXTT10=
EXTT11=
PLAYORDER=
